<?xml version="1.0" standalone="no"?>
<!DOCTYPE svg PUBLIC "-//W3C//DTD SVG 20010904//EN"
 "http://www.w3.org/TR/2001/REC-SVG-20010904/DTD/svg10.dtd">
<svg version="1.0" xmlns="http://www.w3.org/2000/svg"
 width="158.000000pt" height="158.000000pt" viewBox="0 0 158.000000 158.000000"
 preserveAspectRatio="xMidYMid meet">
<metadata>
Created by potrace 1.14, written by Peter Selinger 2001-2017
</metadata>
<g transform="translate(0.000000,158.000000) scale(0.100000,-0.100000)"
fill="#000000" stroke="none">
<path d="M635 1565 c-176 -39 -302 -110 -422 -239 -207 -220 -267 -538 -158
-827 50 -129 160 -269 280 -355 68 -48 130 -78 227 -110 75 -24 98 -27 228
-27 132 -1 153 2 229 27 278 92 459 282 538 566 18 67 25 243 12 324 -45 276
-253 520 -520 611 -101 35 -108 36 -239 40 -72 2 -138 -2 -175 -10z m344 -218
c129 -45 224 -119 301 -234 68 -102 95 -192 95 -323 0 -207 -89 -375 -261
-489 -95 -64 -182 -92 -299 -97 -243 -10 -460 124 -562 346 -68 149 -67 337 4
488 27 57 96 154 130 182 93 77 160 114 254 139 104 28 237 23 338 -12z"/>
</g>
</svg>
