<?xml version="1.0" standalone="no"?>
<!DOCTYPE svg PUBLIC "-//W3C//DTD SVG 20010904//EN"
 "http://www.w3.org/TR/2001/REC-SVG-20010904/DTD/svg10.dtd">
<svg version="1.0" xmlns="http://www.w3.org/2000/svg"
 width="500.000000pt" height="500.000000pt" viewBox="0 0 500.000000 500.000000"
 preserveAspectRatio="xMidYMid meet">
<metadata>
Created by potrace 1.14, written by Peter Selinger 2001-2017
</metadata>
<g transform="translate(0.000000,500.000000) scale(0.100000,-0.100000)"
fill="#000000" stroke="none">
<path d="M2456 4208 c-28 -40 -18 -67 31 -82 15 -5 28 -1 42 13 26 26 26 46 1
71 -26 26 -55 25 -74 -2z"/>
<path d="M1964 4132 c-15 -10 -25 -45 -16 -58 4 -6 16 -16 28 -22 26 -14 64 9
64 38 0 37 -46 62 -76 42z"/>
<path d="M2958 4130 c-27 -16 -19 -59 14 -76 25 -13 29 -13 47 5 43 43 -9 102
-61 71z"/>
<path d="M2315 3999 c-199 -31 -448 -124 -595 -222 -218 -146 -368 -312 -493
-547 -37 -70 -69 -146 -72 -170 0 -3 -3 -10 -7 -15 -3 -6 -9 -28 -13 -50 -4
-22 -11 -47 -16 -56 -5 -9 -10 -43 -13 -75 -2 -33 -7 -66 -11 -75 -4 -12 5
-25 32 -45 21 -16 40 -31 43 -35 7 -8 149 -64 170 -67 3 -1 21 -8 40 -16 19
-8 39 -14 43 -14 13 0 100 -46 121 -64 24 -22 46 -23 46 -4 0 8 8 29 17 48 9
18 20 41 25 51 5 9 11 48 14 85 3 36 7 68 9 71 5 4 74 -65 112 -112 13 -15 20
-27 15 -27 -4 0 -2 -4 3 -8 25 -17 77 -95 90 -132 1 -3 7 -18 14 -34 6 -15 11
-33 10 -40 -6 -50 18 -66 81 -53 41 8 56 16 70 40 19 31 19 32 -50 192 -20 47
-59 191 -65 240 -11 81 -14 114 -15 155 -1 25 -1 47 -1 50 1 3 4 36 6 73 9
130 69 297 142 397 61 83 161 158 260 197 57 22 84 26 168 26 70 0 115 -5 150
-17 116 -41 232 -135 302 -243 53 -81 67 -116 93 -224 25 -101 32 -270 16
-384 -5 -33 -9 -69 -11 -80 -3 -23 -5 -30 -29 -100 -9 -27 -18 -54 -20 -60 -5
-16 -22 -56 -54 -124 -24 -52 -28 -68 -19 -83 15 -23 89 -58 125 -58 23 0 28
5 30 28 1 15 6 36 11 47 4 11 16 38 25 60 18 41 80 137 106 165 8 8 24 27 35
40 23 29 64 60 80 60 6 0 11 -29 11 -68 1 -52 9 -82 34 -137 l32 -70 20 25
c11 14 23 24 27 24 13 -2 51 20 51 29 0 6 3 7 7 4 3 -4 12 -2 20 4 7 6 13 9
13 6 0 -3 12 0 27 8 15 8 30 12 35 9 4 -3 8 -1 8 4 0 5 7 9 15 10 8 1 22 3 30
4 8 1 15 4 15 8 0 3 10 6 22 7 11 1 25 8 29 15 5 7 9 9 9 5 0 -4 24 5 53 21
100 55 97 52 97 108 0 28 -3 54 -7 58 -4 3 -8 14 -8 24 -10 101 -53 227 -118
351 -42 81 -133 217 -176 264 -61 68 -129 137 -133 137 -3 0 -22 16 -43 36
-135 127 -416 260 -650 310 -93 19 -351 27 -440 13z"/>
<path d="M1667 3978 c-22 -12 -22 -55 1 -67 9 -5 20 -11 23 -13 12 -7 39 25
39 47 0 27 -38 47 -63 33z"/>
<path d="M3265 3974 c-17 -18 -20 -44 -4 -44 5 0 7 -4 4 -10 -3 -5 -2 -10 4
-10 5 0 16 -3 24 -6 23 -8 48 23 38 48 -11 30 -46 41 -66 22z"/>
<path d="M1371 3764 c-27 -61 56 -104 86 -44 16 33 -3 64 -44 68 -24 2 -32 -2
-42 -24z"/>
<path d="M3531 3764 c-22 -50 40 -99 77 -62 19 19 15 66 -7 78 -33 17 -57 12
-70 -16z"/>
<path d="M2487 3664 c-1 -1 -25 -5 -52 -8 -28 -3 -68 -12 -89 -21 -35 -15
-105 -75 -107 -92 0 -4 -2 -17 -5 -28 -10 -45 -8 -82 5 -123 15 -44 30 -52 55
-27 8 9 41 27 72 41 49 22 70 25 144 23 82 -3 90 -5 156 -45 l68 -42 12 33
c16 48 15 152 -2 169 -8 8 -14 18 -14 22 0 12 -51 55 -79 66 -51 20 -155 40
-164 32z"/>
<path d="M1162 3498 c-22 -22 -14 -57 14 -64 38 -10 61 17 46 51 -12 27 -40
33 -60 13z"/>
<path d="M3769 3503 c0 -5 -3 -20 -5 -35 -4 -23 0 -29 22 -34 17 -4 31 -1 42
9 23 24 2 67 -33 67 -14 0 -25 -3 -26 -7z"/>
<path d="M2123 3450 c-89 -144 -128 -349 -101 -530 9 -60 66 -246 101 -330 9
-19 15 -38 16 -43 0 -4 8 -22 18 -40 9 -17 18 -37 19 -44 4 -21 96 -207 112
-225 8 -10 12 -18 8 -18 -4 0 7 -20 24 -44 16 -25 30 -49 30 -55 0 -6 4 -11 8
-11 4 0 21 -26 37 -57 16 -32 37 -66 47 -75 11 -9 19 -19 19 -22 -1 -10 62
-106 69 -106 4 0 10 -10 14 -22 3 -13 18 -37 33 -53 16 -17 29 -37 31 -45 2
-8 8 -16 13 -18 5 -2 9 -10 9 -18 0 -8 5 -14 10 -14 6 0 10 -7 10 -15 0 -8 4
-15 8 -15 5 0 18 -18 31 -40 12 -22 28 -46 36 -53 7 -8 36 -49 65 -92 28 -43
62 -93 75 -109 13 -17 31 -40 38 -50 14 -19 18 -19 123 26 60 25 127 51 149
58 22 7 46 17 53 23 6 5 12 6 12 2 0 -4 6 -3 13 3 6 6 14 10 17 10 3 -1 22 4
42 11 28 9 47 27 78 72 22 32 38 59 34 59 -3 0 1 7 9 15 25 25 50 102 43 131
-5 18 -122 142 -335 353 -415 414 -653 683 -781 886 -25 39 -47 72 -50 75 -22
21 -113 204 -135 270 -10 30 -21 84 -24 120 l-6 65 -22 -35z"/>
<path d="M2840 3436 c0 -116 -56 -246 -196 -458 -46 -70 -84 -130 -84 -135 0
-5 11 -17 25 -27 14 -10 25 -23 25 -28 0 -9 79 -106 156 -192 24 -26 44 -52
44 -57 0 -13 40 13 40 26 1 5 9 28 20 50 11 22 19 43 20 47 0 4 5 19 12 35 6
15 13 35 14 43 2 8 9 33 17 55 8 22 18 56 21 75 3 19 8 46 11 60 3 14 6 75 6
135 0 89 -5 127 -25 198 -26 87 -59 163 -90 202 -14 19 -15 17 -16 -29z"/>
<path d="M2397 3315 c-43 -16 -97 -52 -97 -65 0 -12 118 -209 146 -245 42 -52
45 -55 52 -55 4 0 21 19 37 42 35 49 155 248 155 257 0 12 -35 36 -82 59 -56
26 -150 29 -211 7z"/>
<path d="M977 3230 c-14 -11 -24 -26 -23 -34 3 -24 28 -46 51 -46 47 0 60 59
19 87 -18 12 -24 11 -47 -7z"/>
<path d="M3953 3233 c-16 -6 -17 -55 -1 -71 7 -7 21 -12 33 -12 12 0 26 5 33
12 7 7 12 21 12 33 0 37 -36 55 -77 38z"/>
<path d="M4052 3015 c0 -11 -2 -31 -5 -45 -36 -164 -70 -250 -126 -312 -50
-56 -106 -88 -201 -113 -126 -35 -218 -97 -264 -179 -13 -23 -40 -91 -62 -153
-21 -61 -41 -110 -45 -108 -4 3 -9 -5 -12 -16 l-6 -21 22 20 c12 11 36 32 52
47 50 46 129 69 222 66 25 -1 98 21 153 46 53 24 135 115 169 185 16 35 41
115 55 178 14 63 33 142 42 175 18 67 26 215 13 236 -6 10 -8 9 -7 -6z m-353
-642 c-22 -28 -99 -96 -128 -114 -42 -25 -111 -50 -111 -40 0 14 78 78 119 97
20 9 56 30 81 45 53 34 57 35 39 12z"/>
<path d="M926 2940 c3 -85 7 -115 29 -195 8 -27 24 -95 36 -150 12 -55 34
-127 48 -160 28 -61 127 -179 143 -169 4 3 8 1 8 -5 0 -14 101 -50 157 -55 26
-3 48 -5 48 -6 0 -1 20 -3 45 -4 60 -4 106 -25 160 -74 25 -22 46 -39 48 -37
1 1 -6 18 -17 36 -11 19 -34 77 -51 130 -53 164 -141 248 -310 293 -130 36
-209 95 -254 191 -41 86 -73 197 -75 263 -1 12 -5 22 -9 22 -5 0 -8 -36 -6
-80z m456 -609 c70 -35 156 -105 141 -114 -21 -13 -202 105 -217 141 -3 8 -3
12 1 10 5 -2 38 -18 75 -37z"/>
<path d="M1687 2546 c-9 -35 -17 -83 -17 -105 0 -47 25 -117 51 -145 17 -19
18 -18 30 28 6 25 16 49 21 52 11 7 9 -76 -3 -116 -4 -14 -10 -38 -14 -54 -5
-26 -4 -28 9 -17 9 7 14 17 11 21 -3 5 -1 10 4 12 5 1 18 26 29 53 25 66 21
138 -13 212 -27 59 -70 123 -83 123 -4 0 -16 -29 -25 -64z"/>
<path d="M3227 2558 c-42 -64 -58 -113 -63 -186 -3 -45 2 -66 27 -118 16 -35
34 -64 38 -64 4 0 2 28 -5 63 -17 79 -17 114 -1 123 6 4 9 4 5 0 -11 -13 22
-95 37 -90 20 8 54 124 50 171 -4 54 -33 153 -44 153 -5 0 -25 -24 -44 -52z"/>
<path d="M831 2450 c-23 -88 -17 -214 13 -304 15 -44 37 -93 48 -110 33 -48
108 -115 147 -132 20 -9 45 -20 56 -25 47 -22 194 -31 260 -16 57 13 207 56
212 60 2 3 -31 5 -74 6 -75 2 -96 11 -87 36 3 8 24 11 57 10 84 -4 88 -5 83
-13 -3 -5 5 -7 17 -6 12 1 31 3 42 3 19 2 19 3 -4 21 -13 11 -20 20 -16 20 17
0 -63 62 -105 82 -75 35 -100 40 -220 47 -138 8 -214 37 -277 105 -38 41 -97
150 -126 229 l-13 38 -13 -51z"/>
<path d="M4126 2457 c-10 -55 -71 -169 -113 -214 -75 -80 -156 -111 -293 -114
-88 -2 -160 -18 -220 -49 -40 -21 -100 -74 -100 -88 0 -6 -8 -13 -17 -16 -15
-6 -15 -9 -3 -16 8 -5 19 -6 25 -2 24 15 179 26 170 12 -3 -5 -1 -10 6 -10 9
0 9 -3 0 -14 -8 -10 -32 -14 -72 -14 -54 1 -79 -5 -68 -17 3 -2 32 -12 64 -21
202 -56 316 -54 441 7 170 84 262 315 213 536 -14 61 -24 67 -33 20z"/>
<path d="M2107 2319 c-9 -6 -147 -139 -307 -298 -320 -318 -313 -308 -269
-388 33 -59 100 -156 121 -174 10 -9 18 -21 18 -28 0 -6 3 -11 8 -11 10 0 112
-136 112 -149 0 -6 6 -14 13 -18 8 -4 18 -15 23 -24 13 -24 72 -95 131 -158
51 -56 149 -123 182 -126 9 0 21 -4 28 -8 38 -24 208 -28 318 -7 103 19 202
57 445 173 47 22 87 41 90 42 8 3 40 16 100 42 259 113 421 143 545 101 121
-40 162 -142 83 -201 -26 -19 -95 -26 -107 -10 -11 15 -76 60 -96 66 -50 16
-162 27 -179 18 -5 -2 -27 -6 -49 -8 -22 -2 -47 -9 -55 -16 -8 -6 -17 -10 -19
-9 -3 2 -7 1 -10 -1 -5 -6 13 -12 66 -22 19 -4 81 -30 139 -57 57 -28 111 -51
120 -53 10 -2 17 -4 17 -6 0 -1 16 -3 36 -4 19 -1 40 -4 45 -7 18 -12 115 29
149 62 38 37 58 98 51 157 -10 85 -56 136 -153 173 -165 62 -420 8 -763 -160
-141 -70 -323 -146 -396 -165 -32 -9 -68 -19 -79 -22 -11 -3 -62 -7 -113 -9
-75 -3 -105 0 -157 18 -36 11 -65 25 -65 29 0 5 -6 9 -12 10 -7 0 -23 13 -35
28 -23 30 -55 111 -44 111 4 0 13 16 20 36 7 19 35 64 61 100 27 35 46 64 42
64 -4 0 -2 4 4 8 5 4 21 25 34 47 13 22 27 42 30 45 3 3 28 37 55 75 27 39 53
75 59 80 19 17 66 91 66 102 0 6 6 13 13 16 8 3 4 21 -17 63 -29 58 -92 153
-109 165 -5 3 -9 9 -8 12 1 17 -51 111 -69 127 -4 3 -17 28 -30 55 -50 104
-64 124 -83 114z"/>
<path d="M3915 1755 c-22 -14 -62 -32 -90 -41 -97 -31 -169 -99 -181 -170 -2
-16 -7 -42 -10 -57 l-6 -29 49 8 c78 11 80 12 127 39 48 28 80 81 107 175 7
25 21 57 31 73 23 33 23 33 -27 2z"/>
<path d="M1053 1743 c8 -16 25 -59 37 -96 16 -45 38 -83 67 -115 24 -25 43
-43 43 -39 0 4 11 0 25 -9 14 -9 32 -14 40 -10 8 3 15 2 15 -3 0 -4 12 -6 28
-4 23 3 32 -4 61 -46 35 -54 116 -114 181 -136 3 -1 16 -6 30 -12 120 -50 110
-47 110 -33 0 11 -159 90 -180 90 -5 0 -10 5 -10 10 0 6 -5 10 -12 10 -7 0
-34 23 -61 51 -45 48 -66 81 -73 121 -8 40 -48 110 -79 137 -18 16 -64 39
-102 51 -37 13 -80 31 -95 41 -36 26 -41 24 -25 -8z"/>
<path d="M2423 1530 c-71 -33 -112 -89 -118 -164 -13 -162 171 -262 304 -166
98 71 105 205 15 294 -53 52 -134 66 -201 36z m137 -85 c34 -18 54 -64 46
-107 -3 -18 -6 -37 -5 -42 1 -17 -77 -55 -107 -52 -16 2 -34 4 -40 5 -22 2
-62 52 -67 84 -15 104 75 163 173 112z"/>
<path d="M1168 1340 c-50 -30 -60 -151 -17 -212 32 -46 58 -68 104 -88 75 -34
170 -32 250 4 107 48 147 62 198 71 45 7 41 20 -10 30 -21 5 -45 10 -53 12
-25 7 -152 6 -195 -2 -22 -3 -58 -10 -80 -15 -34 -7 -119 0 -129 11 -2 2 -13
19 -24 38 -22 36 -20 54 9 86 40 44 -1 95 -53 65z"/>
</g>
</svg>
